<svg width="83" height="77" viewBox="0 0 83 77" fill="none" xmlns="http://www.w3.org/2000/svg">
<path d="M3 15.4545H18.7273L29.5455 41.8182H30.0909L40.9091 15.4545H56.6364V62H44.2727V35.0909H43.9091L33.5455 61.6364H26.0909L15.7273 34.9091H15.3636V62H3V15.4545Z" fill="#0F172A"/>
<path d="M44 62V15.4545H64.0909C67.5455 15.4545 70.5682 16.1364 73.1591 17.5C75.75 18.8636 77.7652 20.7803 79.2045 23.25C80.6439 25.7197 81.3636 28.6061 81.3636 31.9091C81.3636 35.2424 80.6212 38.1288 79.1364 40.5682C77.6667 43.0076 75.5985 44.8864 72.9318 46.2045C70.2803 47.5227 67.1818 48.1818 63.6364 48.1818H51.6364V38.3636H61.0909C62.5758 38.3636 63.8409 38.1061 64.8864 37.5909C65.947 37.0606 66.7576 36.3106 67.3182 35.3409C67.8939 34.3712 68.1818 33.2273 68.1818 31.9091C68.1818 30.5758 67.8939 29.4394 67.3182 28.5C66.7576 27.5455 65.947 26.8182 64.8864 26.3182C63.8409 25.803 62.5758 25.5455 61.0909 25.5455H56.6364V62H44Z" fill="#0F172A"/>
</svg>
